<?xml version="1.0" encoding="utf-8"?>
<!-- Generator: Adobe Illustrator 16.0.0, SVG Export Plug-In . SVG Version: 6.00 Build 0)  -->
<!DOCTYPE svg PUBLIC "-//W3C//DTD SVG 1.1//EN" "http://www.w3.org/Graphics/SVG/1.1/DTD/svg11.dtd">
<svg version="1.1" id="Calque_1" xmlns="http://www.w3.org/2000/svg" xmlns:xlink="http://www.w3.org/1999/xlink" x="0px" y="0px"
	width="20px" height="20px" viewBox="0 0 20 20" enable-background="new 0 0 20 20" xml:space="preserve">
<g>
	<g>
		<path fill="#FFFFFF" d="M15.166,0.106l-2.58-0.004c-2.899,0-4.773,1.922-4.773,4.897v2.258H5.218
			c-0.223,0-0.405,0.181-0.405,0.405v3.272c0,0.224,0.182,0.405,0.405,0.405h2.595v8.255C7.813,19.818,7.995,20,8.219,20h3.385
			c0.224,0,0.405-0.182,0.405-0.405V11.34h3.034c0.225,0,0.404-0.182,0.404-0.405l0.002-3.272c0-0.107-0.043-0.21-0.119-0.287
			c-0.075-0.076-0.178-0.118-0.287-0.118h-3.034V5.343c0-0.92,0.22-1.387,1.417-1.387l1.738-0.001c0.225,0,0.406-0.182,0.406-0.405
			V0.512C15.57,0.288,15.389,0.107,15.166,0.106L15.166,0.106z M15.166,0.106"/>
	</g>
</g>
</svg>