<?xml version="1.0" encoding="utf-8"?>
<!-- Generator: Adobe Illustrator 16.0.0, SVG Export Plug-In . SVG Version: 6.00 Build 0)  -->
<!DOCTYPE svg PUBLIC "-//W3C//DTD SVG 1.1//EN" "http://www.w3.org/Graphics/SVG/1.1/DTD/svg11.dtd">
<svg version="1.1" id="Layer_6" xmlns="http://www.w3.org/2000/svg" xmlns:xlink="http://www.w3.org/1999/xlink" x="0px" y="0px"
	 width="44.75px" height="56px" viewBox="1.75 -36 44.75 56" enable-background="new 1.75 -36 44.75 56" xml:space="preserve">
<title>PICTO-salmo</title>
<path d="M2.18-13.956c-0.801-12.136,9.86-22.023,22.022-22.023c12.163,0,22.5,9.87,22.023,22.023
	C45.749-1.695,24.202,19.97,24.202,19.97S3.013-1.336,2.18-13.956z"/>
<g id="Layer_9">
	<circle fill="#FFFFFF" cx="24.202" cy="-15.98" r="10.951"/>
</g>
<g id="Layer_11">
	<path d="M18.698-18.616c1.293-1.111,2.314-1.987,5.086-0.422c1.331,0.752,2.403,1.035,3.3,1.035c1.563,0,2.577-0.87,3.45-1.624
		c0.318-0.272,0.359-0.749,0.091-1.071c-0.252-0.313-0.712-0.36-1.024-0.105c-0.006,0.004-0.011,0.009-0.017,0.014
		c-1.293,1.11-2.317,1.988-5.086,0.423c-3.662-2.068-5.378-0.596-6.756,0.587c-0.316,0.272-0.355,0.749-0.09,1.071
		c0.253,0.313,0.713,0.363,1.027,0.109C18.687-18.604,18.693-18.609,18.698-18.616z M29.587-17.004
		c-1.293,1.11-2.314,1.988-5.086,0.422c-3.662-2.068-5.377-0.596-6.754,0.589c-0.314,0.272-0.354,0.744-0.091,1.064
		c0.253,0.313,0.712,0.361,1.024,0.107c0.007-0.004,0.013-0.01,0.018-0.015c1.293-1.109,2.314-1.987,5.086-0.422
		c1.331,0.752,2.403,1.037,3.3,1.037c1.563,0,2.577-0.871,3.45-1.625c0.315-0.271,0.354-0.744,0.091-1.064
		c-0.252-0.311-0.712-0.357-1.024-0.103C29.595-17.011,29.59-17.008,29.587-17.004z M29.587-13.226
		c-1.293,1.11-2.314,1.988-5.086,0.423c-3.662-2.069-5.377-0.596-6.754,0.588c-0.316,0.274-0.357,0.749-0.091,1.072
		c0.255,0.312,0.714,0.359,1.027,0.105c0.005-0.006,0.01-0.01,0.015-0.014c1.293-1.111,2.314-1.989,5.086-0.423
		c1.331,0.752,2.403,1.035,3.3,1.035c1.563,0,2.577-0.871,3.45-1.623c0.318-0.274,0.359-0.75,0.091-1.072
		c-0.255-0.311-0.715-0.357-1.024-0.102C29.595-13.232,29.59-13.229,29.587-13.226z"/>
</g>
</svg>
