<?xml version="1.0" encoding="utf-8"?>
<!-- Generator: Adobe Illustrator 22.0.1, SVG Export Plug-In . SVG Version: 6.00 Build 0)  -->
<svg version="1.1" xmlns="http://www.w3.org/2000/svg" xmlns:xlink="http://www.w3.org/1999/xlink" x="0px" y="0px"
	 viewBox="0 0 500 500" style="enable-background:new 0 0 500 500;" xml:space="preserve">
<style type="text/css">
	.st0{display:none;}
	.st1{display:inline;}
	.st2{fill:none;stroke:#ffffff;stroke-width:25;stroke-miterlimit:10;}
	.st3{fill:#E24242;}
</style>
<g id="Layer_6" class="st0">
	<g class="st1">
		<circle class="st2" cx="238.5" cy="180.5" r="92"/>
		<g>
			<path class="st2" d="M53.5,197.5c-6.7-102,82.8-185,185-185s189,82.9,185,185c-4,103-185,285-185,285S60.5,303.5,53.5,197.5z"/>
		</g>
	</g>
</g>
<g id="Layer_4" class="st0">
	<g class="st1">
		<path class="st2" d="M449.9,402H50.1c-20.7,0-37.6-16.9-37.6-37.6V95.1c0-20.7,16.9-37.6,37.6-37.6h399.8
			c20.7,0,37.6,16.9,37.6,37.6v269.3C487.5,385.1,470.6,402,449.9,402z"/>
		<polyline class="st2" points="476.3,68.4 250.5,250.5 23.7,68.4 		"/>
	</g>
</g>
<g id="Layer_7">
	<path class="st2" d="M17.2,126.2c-7.1,123.7,230.4,373.3,357,356.7c62.3-8.2,93.5-35.6,103.8-54.9c18.8-35.2-9.8-67.2-27.4-85.9
		c-24.2-25.6-62.8-68.9-110.1-16.9c-9.7,10.7-25.6,36.3-57.1,30.4c-26.2-4.9-126.6-108.6-130.6-133.9c-5.2-33.3,13.4-50.3,24.1-59.3
		c43.3-36.3,26.4-71.8-12.1-109.8c-35.7-35.1-53-44.4-87.1-32.4C61,26.3,21.3,56.4,17.2,126.2z"/>
</g>
<g id="Layer_8" class="st0">
	<g class="st1">
		<g>
			<path class="st3" d="M119.9,26.1c26.1,26.3,52.2,52.7,78.3,79c41.6,42,83.3,84,124.9,126c9.6,9.7,19.2,19.4,28.8,29
				c0-7.1,0-14.1,0-21.2c-26.5,26.5-53,53-79.5,79.5c-42.3,42.3-84.5,84.5-126.8,126.8c-9.7,9.7-19.5,19.5-29.2,29.2
				c-5.7,5.7-5.7,15.5,0,21.2c5.7,5.7,15.5,5.7,21.2,0c26.5-26.5,53-53,79.5-79.5c42.3-42.3,84.5-84.5,126.8-126.8
				c9.7-9.7,19.5-19.5,29.2-29.2c5.7-5.7,5.7-15.4,0-21.2c-26.1-26.3-52.2-52.7-78.3-79c-41.6-42-83.3-84-124.9-126
				c-9.6-9.7-19.2-19.4-28.8-29c-5.7-5.8-15.5-5.7-21.2,0C114.1,10.7,114.2,20.3,119.9,26.1L119.9,26.1z"/>
		</g>
	</g>
</g>
<g id="Layer_2" class="st0">
	<g class="st1">
		<g>
			<path d="M121.4,470.2c-6.8,6.8-6.8,17.9,0,24.7c6.8,6.8,17.9,6.8,24.7,0l232.6-232.6c6.8-6.8,6.8-17.9,0-24.7L146.1,5.1
				c-6.8-6.8-17.9-6.8-24.7,0c-6.8,6.8-6.8,17.9,0,24.7l220.4,220.4L121.4,470.2z"/>
		</g>
	</g>
</g>
</svg>
