<?xml version="1.0" encoding="utf-8"?>
<!-- Generator: Adobe Illustrator 16.0.0, SVG Export Plug-In . SVG Version: 6.00 Build 0)  -->
<!DOCTYPE svg PUBLIC "-//W3C//DTD SVG 1.1//EN" "http://www.w3.org/Graphics/SVG/1.1/DTD/svg11.dtd">
<svg version="1.1" id="Calque_1" xmlns="http://www.w3.org/2000/svg" xmlns:xlink="http://www.w3.org/1999/xlink" x="0px" y="0px"
	 width="40px" height="40px" viewBox="0 0 40 40" style="enable-background:new 0 0 40 40;" xml:space="preserve">
<style type="text/css">
<![CDATA[
	.st0{fill:#FFFFFF;stroke:#FFFFFF;stroke-width:0.5;stroke-miterlimit:10;}
]]>
svg {
cursor:pointer;
}
svg path {
	animation: moveTheWave 1.7s linear infinite;  
	animation-fill-mode: both;
}
@keyframes moveTheWave {
  0% { transform: translate3d(0, 0, 0);}
  100% { transform: translate3d(-73px, 0, 0); }
}
</style>

<path class="st0" d="M10.8632813,14.6401367c3.1245117,0,6.246582-1.2231445,9.4111328-3.6669922
	c5.3271484-4.1108398,12.0458984-4.1108398,17.5371094,0.0068359c0.2734375,0.2001953,0.6367188,0.1132813,0.8154297-0.1958008
	c0.1757813-0.309082,0.1015625-0.7250977-0.1669922-0.9296875C32.5615234,5.4365234,25.3427734,5.4399414,19.6201172,9.859375
	c-5.8881836,4.5488281-11.6230469,4.5488281-17.5327148,0c-0.2695313-0.2075195-0.6318359-0.1254883-0.8129883,0.1831055
	c-0.1806641,0.3061523-0.109375,0.7250977,0.159668,0.9306641C4.609375,13.4169922,7.7373047,14.6401367,10.8632813,14.6401367
	L10.8632813,14.6401367z M10.8632813,14.6401367"/>
<path class="st0" d="M38.4599609,19.128418c-5.8984375-4.4169922-13.1171875-4.4155273-18.8398438,0.0068359
	c-5.8911133,4.5483398-11.6230469,4.5483398-17.5327148,0c-0.2695313-0.2089844-0.6318359-0.1259766-0.8129883,0.1826172
	C1.09375,19.625,1.1650391,20.0429688,1.434082,20.2519531c3.175293,2.4394531,6.3032227,3.6660156,9.4291992,3.6660156
	c3.1245117-0.0019531,6.246582-1.2265625,9.4111328-3.6699219c5.3271484-4.1108398,12.0458984-4.109375,17.5371094,0.0058594
	c0.2734375,0.2050781,0.6367188,0.1171875,0.8154297-0.1953125C38.8027344,19.7495117,38.7285156,19.3325195,38.4599609,19.128418
	L38.4599609,19.128418z M38.4599609,19.128418"/>
<path class="st0" d="M38.4599609,28.4042969c-5.8984375-4.4160156-13.1171875-4.4160156-18.8398438,0.0039063
	c-5.8881836,4.5507813-11.6230469,4.5507813-17.5327148,0c-0.2695313-0.2070313-0.6318359-0.1230469-0.8129883,0.1855469
	c-0.1806641,0.3066406-0.109375,0.7226563,0.159668,0.9316406c3.175293,2.4433594,6.3032227,3.6660156,9.4291992,3.6660156
	c3.1245117,0,6.246582-1.2226563,9.4111328-3.6660156c5.3271484-4.1191406,12.0458984-4.1132813,17.5371094,0.0019531
	c0.2734375,0.2050781,0.6367188,0.1171875,0.8154297-0.1894531C38.8027344,29.0214844,38.7285156,28.6074219,38.4599609,28.4042969
	L38.4599609,28.4042969z M38.4599609,28.4042969"/>
<path class="st0" d="M47.4384766,14.7758789c3.1240234,0,6.2460938-1.2231445,9.4111328-3.6669922
	c5.3271484-4.1108398,12.0458984-4.1108398,17.5371094,0.0068359c0.2734375,0.2001953,0.6367188,0.1132813,0.8154297-0.1958008
	c0.1757813-0.309082,0.1015625-0.7250977-0.1669922-0.9296875c-5.8984375-4.4179688-13.1171875-4.4145508-18.8398438,0.0048828
	c-5.8886719,4.5488281-11.6230469,4.5488281-17.5332031,0c-0.2695313-0.2075195-0.6308594-0.1254883-0.8125,0.1831055
	c-0.1806641,0.3061523-0.109375,0.7250977,0.1601563,0.9306641C41.1845703,13.5527344,44.3125,14.7758789,47.4384766,14.7758789
	L47.4384766,14.7758789z M47.4384766,14.7758789"/>
<path class="st0" d="M75.0351563,19.2646484c-5.8984375-4.4174805-13.1171875-4.4160156-18.8398438,0.0058594
	c-5.890625,4.5488281-11.6230469,4.5488281-17.5332031,0c-0.2695313-0.2080078-0.6308594-0.125-0.8125,0.1835938
	c-0.1806641,0.3066406-0.109375,0.7246094,0.1601563,0.9335938c3.1748047,2.4394531,6.3027344,3.6660156,9.4287109,3.6660156
	c3.1240234-0.0019531,6.2460938-1.2265625,9.4111328-3.6699219c5.3271484-4.1108398,12.0458984-4.109375,17.5371094,0.0058594
	c0.2734375,0.2050781,0.6367188,0.1171875,0.8154297-0.1953125C75.3779297,19.8857422,75.3037109,19.4677734,75.0351563,19.2646484
	L75.0351563,19.2646484z M75.0351563,19.2646484"/>
<path class="st0" d="M75.0351563,28.5400391c-5.8984375-4.4160156-13.1171875-4.4160156-18.8398438,0.0039063
	c-5.8886719,4.5507813-11.6230469,4.5507813-17.5332031,0c-0.2695313-0.2070313-0.6308594-0.1230469-0.8125,0.1855469
	c-0.1806641,0.3066406-0.109375,0.7226563,0.1601563,0.9316406c3.1748047,2.4433594,6.3027344,3.6660156,9.4287109,3.6660156
	c3.1240234,0,6.2460938-1.2226563,9.4111328-3.6660156c5.3271484-4.1191406,12.0458984-4.1132813,17.5371094,0.0019531
	c0.2734375,0.2050781,0.6367188,0.1171875,0.8154297-0.1894531C75.3779297,29.1572266,75.3037109,28.7431641,75.0351563,28.5400391
	L75.0351563,28.5400391z M75.0351563,28.5400391"/>
<path class="st0" d="M83.3945313,14.4213867c3.125,0,6.2460938-1.2231445,9.4111328-3.6669922
	c5.3271484-4.1108398,12.0458984-4.1108398,17.5371094,0.0068359c0.2734375,0.2001953,0.6367188,0.1132813,0.8154297-0.1958008
	c0.1757813-0.309082,0.1015625-0.7250977-0.1669922-0.9296875c-5.8984375-4.4179688-13.1171875-4.4145508-18.8398438,0.0048828
	c-5.8876953,4.5488281-11.6230469,4.5488281-17.5322266,0c-0.2695313-0.2075195-0.6328125-0.1254883-0.8134766,0.1831055
	c-0.1806641,0.3061523-0.109375,0.7250977,0.1591797,0.9306641C77.140625,13.1982422,80.2685547,14.4213867,83.3945313,14.4213867
	L83.3945313,14.4213867z M83.3945313,14.4213867"/>
<path class="st0" d="M110.9912109,18.9101563c-5.8984375-4.4174805-13.1171875-4.4160156-18.8398438,0.0058594
	c-5.8916016,4.5488281-11.6230469,4.5488281-17.5322266,0c-0.2695313-0.2084961-0.6328125-0.125-0.8134766,0.1835938
	c-0.1806641,0.3066406-0.109375,0.7246094,0.1591797,0.9335938c3.1757813,2.4394531,6.3037109,3.6660156,9.4296875,3.6660156
	c3.125-0.0019531,6.2460938-1.2265625,9.4111328-3.6699219c5.3271484-4.1108398,12.0458984-4.109375,17.5371094,0.0058594
	c0.2734375,0.2050781,0.6367188,0.1171875,0.8154297-0.1953125C111.3339844,19.53125,111.2597656,19.1132813,110.9912109,18.9101563
	L110.9912109,18.9101563z M110.9912109,18.9101563"/>
<path class="st0" d="M110.9912109,28.1855469c-5.8984375-4.4160156-13.1171875-4.4160156-18.8398438,0.0039063
	c-5.8876953,4.5507813-11.6230469,4.5507813-17.5322266,0c-0.2695313-0.2070313-0.6328125-0.1230469-0.8134766,0.1855469
	c-0.1806641,0.3066406-0.109375,0.7226563,0.1591797,0.9316406c3.1757813,2.4433594,6.3037109,3.6660156,9.4296875,3.6660156
	c3.125,0,6.2460938-1.2226563,9.4111328-3.6660156c5.3271484-4.1191406,12.0458984-4.1132813,17.5371094,0.0019531
	c0.2734375,0.2050781,0.6367188,0.1171875,0.8154297-0.1894531
	C111.3339844,28.8027344,111.2597656,28.3886719,110.9912109,28.1855469L110.9912109,28.1855469z M110.9912109,28.1855469"/>
<path class="st0" d="M119.9697266,14.5571289c3.1240234,0,6.2460938-1.2231445,9.4111328-3.6669922
	c5.3271484-4.1108398,12.0458984-4.1108398,17.5371094,0.0068359c0.2734375,0.2001953,0.6367188,0.1132813,0.8154297-0.1958008
	c0.1757813-0.309082,0.1015625-0.7250977-0.1669922-0.9296875c-5.8984375-4.4179688-13.1171875-4.4145508-18.8398438,0.0048828
	c-5.8886719,4.5488281-11.6230469,4.5488281-17.5332031,0c-0.2695313-0.2075195-0.6308594-0.1254883-0.8125,0.1831055
	c-0.1806641,0.3061523-0.109375,0.7250977,0.1601563,0.9306641C113.7158203,13.3339844,116.84375,14.5571289,119.9697266,14.5571289
	L119.9697266,14.5571289z M119.9697266,14.5571289"/>
<path class="st0" d="M147.5664063,19.0458984c-5.8984375-4.4174805-13.1171875-4.4160156-18.8398438,0.0058594
	c-5.890625,4.5488281-11.6230469,4.5488281-17.5332031,0c-0.2695313-0.2080078-0.6308594-0.125-0.8125,0.1835938
	c-0.1806641,0.3066406-0.109375,0.7246094,0.1601563,0.9335938c3.1748047,2.4394531,6.3027344,3.6660156,9.4287109,3.6660156
	c3.1240234-0.0019531,6.2460938-1.2265625,9.4111328-3.6699219c5.3271484-4.1108398,12.0458984-4.109375,17.5371094,0.0058594
	c0.2734375,0.2050781,0.6367188,0.1171875,0.8154297-0.1953125
	C147.9091797,19.6669922,147.8349609,19.2490234,147.5664063,19.0458984L147.5664063,19.0458984z M147.5664063,19.0458984"/>
<path class="st0" d="M147.5664063,28.3212891c-5.8984375-4.4160156-13.1171875-4.4160156-18.8398438,0.0039063
	c-5.8886719,4.5507813-11.6230469,4.5507813-17.5332031,0c-0.2695313-0.2070313-0.6308594-0.1230469-0.8125,0.1855469
	c-0.1806641,0.3066406-0.109375,0.7226563,0.1601563,0.9316406c3.1748047,2.4433594,6.3027344,3.6660156,9.4287109,3.6660156
	c3.1240234,0,6.2460938-1.2226563,9.4111328-3.6660156c5.3271484-4.1191406,12.0458984-4.1132813,17.5371094,0.0019531
	c0.2734375,0.2050781,0.6367188,0.1171875,0.8154297-0.1894531
	C147.9091797,28.9384766,147.8349609,28.5244141,147.5664063,28.3212891L147.5664063,28.3212891z M147.5664063,28.3212891"/>

</svg>
