<?xml version="1.0" encoding="utf-8"?>
<!-- Generator: Adobe Illustrator 16.0.0, SVG Export Plug-In . SVG Version: 6.00 Build 0)  -->
<!DOCTYPE svg PUBLIC "-//W3C//DTD SVG 1.1//EN" "http://www.w3.org/Graphics/SVG/1.1/DTD/svg11.dtd">
<svg version="1.1" id="Calque_1" xmlns="http://www.w3.org/2000/svg" xmlns:xlink="http://www.w3.org/1999/xlink" x="0px" y="0px"
	 width="55px" height="55px" viewBox="0 0 55 55" enable-background="new 0 0 55 55" xml:space="preserve">
<path fill="#FFFFFF" d="M1.179,27.502c0-14.537,11.784-26.321,26.324-26.321c14.531,0,26.315,11.784,26.315,26.321
	c0,14.533-11.784,26.318-26.315,26.318C12.963,53.82,1.179,42.035,1.179,27.502L1.179,27.502z M1.179,27.502"/>
<path fill="#FFFFFF" d="M27.503,54.833c-15.073,0-27.337-12.26-27.337-27.331c0-15.071,12.264-27.335,27.337-27.335
	c15.07,0,27.33,12.264,27.33,27.335C54.833,42.573,42.573,54.833,27.503,54.833L27.503,54.833z M27.503,2.194
	c-13.961,0-25.31,11.349-25.31,25.308c0,13.954,11.348,25.31,25.31,25.31c13.953,0,25.308-11.355,25.308-25.31
	C52.811,13.543,41.456,2.194,27.503,2.194L27.503,2.194z M27.503,2.194"/>
<path stroke="#000000" stroke-width="0.5" stroke-miterlimit="10" d="M27.445,36.573c-0.413,0-0.826-0.158-1.136-0.472
	L15.531,25.326c-0.368-0.365-0.368-0.96,0-1.327c0.365-0.366,0.96-0.366,1.325,0l10.59,10.589l10.581-10.589
	c0.366-0.366,0.961-0.366,1.328,0c0.365,0.366,0.365,0.961,0,1.327L28.573,36.102C28.265,36.415,27.851,36.573,27.445,36.573
	L27.445,36.573z"/>
<path d="M27.445,36.573"/>
</svg>
