<?xml version="1.0" encoding="utf-8"?>
<!-- Generator: Adobe Illustrator 16.0.0, SVG Export Plug-In . SVG Version: 6.00 Build 0)  -->
<!DOCTYPE svg PUBLIC "-//W3C//DTD SVG 1.1//EN" "http://www.w3.org/Graphics/SVG/1.1/DTD/svg11.dtd">
<svg version="1.1" id="Calque_1" xmlns="http://www.w3.org/2000/svg" xmlns:xlink="http://www.w3.org/1999/xlink" x="0px" y="0px"
	 width="45px" height="45px" viewBox="0 0 45 45" enable-background="new 0 0 45 45" xml:space="preserve">
<path fill="none" d="M0.833,22.502c0-11.967,9.7-21.667,21.668-21.667c11.963,0,21.663,9.701,21.663,21.667
	c0,11.963-9.7,21.664-21.663,21.664C10.534,44.166,0.833,34.465,0.833,22.502L0.833,22.502z M0.833,22.502"/>
<path fill="#FFFFFF" d="M22.502,45C10.095,45,0,34.908,0,22.502C0,10.095,10.095,0,22.502,0C34.908,0,45,10.095,45,22.502
	C45,34.908,34.908,45,22.502,45L22.502,45z M22.502,1.669c-11.492,0-20.833,9.342-20.833,20.833
	c0,11.486,9.341,20.834,20.833,20.834c11.486,0,20.833-9.348,20.833-20.834C43.335,11.011,33.988,1.669,22.502,1.669L22.502,1.669z
	 M22.502,1.669"/>
<path fill="#FFFFFF" d="M22.502,29.168c-0.367,0-0.733-0.141-1.009-0.42l-9.582-9.579c-0.327-0.325-0.327-0.854,0-1.18
	c0.325-0.326,0.854-0.326,1.178,0l9.413,9.413l9.407-9.413c0.325-0.326,0.854-0.326,1.18,0c0.325,0.325,0.325,0.854,0,1.18
	l-9.583,9.579C23.23,29.027,22.863,29.168,22.502,29.168L22.502,29.168z M22.502,29.168"/>
</svg>
