<?xml version="1.0" encoding="utf-8"?>
<!-- Generator: Adobe Illustrator 16.0.0, SVG Export Plug-In . SVG Version: 6.00 Build 0)  -->
<!DOCTYPE svg PUBLIC "-//W3C//DTD SVG 1.1//EN" "http://www.w3.org/Graphics/SVG/1.1/DTD/svg11.dtd">
<svg version="1.1" id="Calque_1" xmlns="http://www.w3.org/2000/svg" xmlns:xlink="http://www.w3.org/1999/xlink" x="0px" y="0px"
	 width="45px" height="45px" viewBox="0 0 45 45" enable-background="new 0 0 45 45" xml:space="preserve">
<path fill="none" d="M22.498,0.836c11.967,0,21.667,9.7,21.667,21.667c0,11.963-9.7,21.663-21.667,21.663
	c-11.963,0-21.664-9.7-21.664-21.663C0.834,10.536,10.535,0.836,22.498,0.836L22.498,0.836z M22.498,0.836"/>
<path fill="#FFFFFF" d="M0,22.503C0,10.097,10.092,0.002,22.498,0.002S45,10.097,45,22.503S34.904,45.001,22.498,45.001
	S0,34.909,0,22.503L0,22.503z M43.331,22.503c0-11.491-9.342-20.832-20.833-20.832c-11.486,0-20.834,9.341-20.834,20.832
	c0,11.486,9.348,20.833,20.834,20.833C33.989,43.336,43.331,33.989,43.331,22.503L43.331,22.503z M43.331,22.503"/>
<path fill="#FFFFFF" d="M15.832,22.503c0-0.365,0.141-0.732,0.42-1.008l9.578-9.582c0.325-0.327,0.854-0.327,1.18,0
	c0.326,0.324,0.326,0.854,0,1.178l-9.412,9.412l9.412,9.407c0.326,0.325,0.326,0.854,0,1.18c-0.325,0.325-0.854,0.325-1.18,0
	l-9.578-9.583C15.973,23.231,15.832,22.864,15.832,22.503L15.832,22.503z M15.832,22.503"/>
</svg>
