<?xml version="1.0" encoding="utf-8"?>
<!-- Generator: Adobe Illustrator 16.0.0, SVG Export Plug-In . SVG Version: 6.00 Build 0)  -->
<!DOCTYPE svg PUBLIC "-//W3C//DTD SVG 1.1//EN" "http://www.w3.org/Graphics/SVG/1.1/DTD/svg11.dtd">
<svg version="1.1" id="Calque_1" xmlns="http://www.w3.org/2000/svg" xmlns:xlink="http://www.w3.org/1999/xlink" x="0px" y="0px"
	width="20px" height="20px" viewBox="0 0 20 20" enable-background="new 0 0 20 20" xml:space="preserve">
<g>
	<path fill="#FFFFFF" stroke="#FFFFFF" stroke-miterlimit="10" d="M10.004,4.793c-1.285,0-2.33,1.043-2.33,2.33
		c0,1.283,1.045,2.328,2.33,2.328c1.282,0,2.328-1.045,2.328-2.328C12.332,5.836,11.286,4.793,10.004,4.793L10.004,4.793z
		M10.004,8.786c-0.918,0-1.666-0.746-1.666-1.663c0-0.917,0.748-1.665,1.666-1.665c0.915,0,1.663,0.748,1.663,1.665
		C11.667,8.04,10.919,8.786,10.004,8.786L10.004,8.786z M10.004,8.786"/>
	<path fill="#FFFFFF" stroke="#FFFFFF" stroke-miterlimit="10" d="M14.457,2.668c-1.207-1.204-2.811-1.869-4.511-1.869
		c-1.708,0-3.31,0.665-4.515,1.869c-2.229,2.232-2.508,6.426-0.6,8.969l5.115,7.383l5.102-7.373
		C16.964,9.094,16.687,4.9,14.457,2.668L14.457,2.668z M14.508,11.259l-4.562,6.59l-4.574-6.602C3.642,8.941,3.889,5.152,5.904,3.14
		c1.079-1.08,2.514-1.674,4.042-1.674c1.523,0,2.956,0.594,4.04,1.674C15.999,5.152,16.246,8.941,14.508,11.259L14.508,11.259z
		M14.508,11.259"/>
</g>
</svg>