<?xml version="1.0" encoding="utf-8"?>
<!-- Generator: Adobe Illustrator 16.0.0, SVG Export Plug-In . SVG Version: 6.00 Build 0)  -->
<!DOCTYPE svg PUBLIC "-//W3C//DTD SVG 1.1//EN" "http://www.w3.org/Graphics/SVG/1.1/DTD/svg11.dtd">
<svg version="1.1" id="Calque_1" xmlns="http://www.w3.org/2000/svg" xmlns:xlink="http://www.w3.org/1999/xlink" x="0px" y="0px"
		width="20px" height="20px" viewBox="0 0 20 20" enable-background="new 0 0 20 20" xml:space="preserve">
	<path fill="none" stroke="#FFFFFF" stroke-miterlimit="10" d="M17.494,16.855H2.62c-0.788,0-1.43-0.637-1.43-1.43V5.68
		c0-0.787,0.642-1.43,1.43-1.43h14.874c0.786,0,1.429,0.643,1.429,1.43v9.746C18.923,16.219,18.28,16.855,17.494,16.855
		L17.494,16.855z M2.62,4.823c-0.472,0-0.857,0.385-0.857,0.857v9.746c0,0.475,0.385,0.857,0.857,0.857h14.874
		c0.474,0,0.856-0.383,0.856-0.857V5.68c0-0.472-0.383-0.857-0.856-0.857H2.62z M2.62,4.823"/>
	<path fill="none" stroke="#FFFFFF" stroke-miterlimit="10" d="M10.059,11.99c-0.383,0-0.763-0.127-1.05-0.377l-7.31-6.369
		C1.582,5.139,1.567,4.959,1.673,4.84c0.104-0.12,0.285-0.132,0.402-0.028l7.307,6.368c0.366,0.318,0.983,0.318,1.348,0l7.305-6.366
		c0.12-0.106,0.299-0.094,0.405,0.029c0.103,0.117,0.092,0.298-0.029,0.401l-7.303,6.365C10.818,11.863,10.438,11.99,10.059,11.99
		L10.059,11.99z M10.059,11.99"/>
	</svg>