<?xml version="1.0" encoding="utf-8"?>
<!-- Generator: Adobe Illustrator 16.0.0, SVG Export Plug-In . SVG Version: 6.00 Build 0)  -->
<!DOCTYPE svg PUBLIC "-//W3C//DTD SVG 1.1//EN" "http://www.w3.org/Graphics/SVG/1.1/DTD/svg11.dtd">
<svg version="1.1" id="Calque_1" xmlns="http://www.w3.org/2000/svg" xmlns:xlink="http://www.w3.org/1999/xlink" x="0px" y="0px"
	width="20px" height="20px" viewBox="0 0 20 20" enable-background="new 0 0 20 20" xml:space="preserve">
	<path fill="none" stroke="#FFFFFF" stroke-width="1.5" stroke-miterlimit="10" d="M1.852,15.059
c-0.521,0.522-0.505,1.384,0.033,1.927l0.75,0.734l0.016-0.017c0.315,0.246,0.679,0.454,1.068,0.605
c0.363,0.142,0.72,0.231,1.092,0.274c0.171,0.019,4.133,0.389,9.05-4.525c3.555-3.558,4.867-6.179,4.519-9.046
c-0.038-0.357-0.127-0.714-0.27-1.088c-0.154-0.392-0.36-0.757-0.606-1.073l0.017-0.02l-0.734-0.742
c-0.544-0.542-1.408-0.557-1.928-0.036l-2.62,2.62c-0.521,0.521-0.506,1.384,0.035,1.926l0.437,0.437l0.886,0.884
c-0.046,0.082-0.092,0.167-0.143,0.254c-0.463,0.834-1.096,1.977-2.3,3.182c-1.202,1.201-2.341,1.832-3.176,2.295
c-0.09,0.053-0.177,0.1-0.261,0.145l-1.32-1.319c-0.54-0.54-1.403-0.557-1.926-0.036L1.852,15.059L1.852,15.059z M1.852,15.059"/>
</svg>