<?xml version="1.0" encoding="utf-8"?>
<!-- Generator: Adobe Illustrator 16.0.0, SVG Export Plug-In . SVG Version: 6.00 Build 0)  -->
<!DOCTYPE svg PUBLIC "-//W3C//DTD SVG 1.1//EN" "http://www.w3.org/Graphics/SVG/1.1/DTD/svg11.dtd">
<svg version="1.1" id="Calque_1" xmlns="http://www.w3.org/2000/svg" xmlns:xlink="http://www.w3.org/1999/xlink" x="0px" y="0px"
	 width="45px" height="45px" viewBox="0 0 45 45" enable-background="new 0 0 45 45" xml:space="preserve">
<path fill="none" d="M22.501,44.165c-11.967,0-21.667-9.7-21.667-21.667c0-11.963,9.7-21.663,21.667-21.663
	c11.963,0,21.664,9.7,21.664,21.663C44.165,34.465,34.464,44.165,22.501,44.165L22.501,44.165z M22.501,44.165"/>
<path fill="#FFFFFF" d="M44.999,22.498c0,12.407-10.092,22.501-22.498,22.501S-0.001,34.904-0.001,22.498
	C-0.001,10.091,10.095,0,22.501,0S44.999,10.091,44.999,22.498L44.999,22.498z M1.668,22.498c0,11.492,9.342,20.833,20.833,20.833
	c11.486,0,20.834-9.341,20.834-20.833c0-11.486-9.348-20.833-20.834-20.833C11.01,1.665,1.668,11.011,1.668,22.498L1.668,22.498z
	 M1.668,22.498"/>
<path fill="#FFFFFF" d="M29.167,22.498c0,0.366-0.141,0.733-0.42,1.008l-9.578,9.582c-0.325,0.327-0.854,0.327-1.18,0
	c-0.326-0.324-0.326-0.854,0-1.178l9.412-9.413l-9.412-9.407c-0.326-0.325-0.326-0.854,0-1.18c0.325-0.325,0.854-0.325,1.18,0
	l9.578,9.583C29.026,21.769,29.167,22.136,29.167,22.498L29.167,22.498z M29.167,22.498"/>
</svg>
