<?xml version="1.0" encoding="utf-8"?>
<!-- Generator: Adobe Illustrator 16.0.0, SVG Export Plug-In . SVG Version: 6.00 Build 0)  -->
<!DOCTYPE svg PUBLIC "-//W3C//DTD SVG 1.1//EN" "http://www.w3.org/Graphics/SVG/1.1/DTD/svg11.dtd">
<svg version="1.1" id="Calque_1" xmlns="http://www.w3.org/2000/svg" xmlns:xlink="http://www.w3.org/1999/xlink" x="0px" y="0px"
	 width="148.249px" height="40px" viewBox="-24.75 0 148.249 40" enable-background="new -24.75 0 148.249 40" xml:space="preserve"
	>
<path fill="#FFFFFF" stroke="#FFFFFF" stroke-width="0.5" stroke-miterlimit="10" d="M-14.062,14.64
	c3.125,0,6.247-1.223,9.411-3.667C0.677,6.862,7.396,6.862,12.887,10.98c0.273,0.2,0.637,0.113,0.815-0.196
	c0.176-0.309,0.102-0.725-0.167-0.93C7.637,5.437,0.418,5.44-5.305,9.859c-5.888,4.549-11.623,4.549-17.533,0
	c-0.27-0.208-0.632-0.125-0.813,0.183c-0.181,0.306-0.109,0.725,0.16,0.931C-20.315,13.417-17.188,14.64-14.062,14.64L-14.062,14.64
	z"/>
<path fill="#FFFFFF" stroke="#FFFFFF" stroke-width="0.5" stroke-miterlimit="10" d="M13.535,19.128
	c-5.898-4.417-13.117-4.416-18.84,0.007c-5.891,4.548-11.623,4.548-17.533,0c-0.27-0.209-0.632-0.126-0.813,0.183
	c-0.181,0.307-0.109,0.725,0.16,0.934c3.175,2.439,6.303,3.666,9.429,3.666c3.125-0.002,6.247-1.227,9.411-3.67
	c5.327-4.111,12.046-4.109,17.537,0.006c0.273,0.205,0.637,0.117,0.815-0.195C13.878,19.75,13.804,19.333,13.535,19.128
	L13.535,19.128z"/>
<path fill="#FFFFFF" stroke="#FFFFFF" stroke-width="0.5" stroke-miterlimit="10" d="M13.535,28.404
	c-5.898-4.416-13.117-4.416-18.84,0.004c-5.888,4.551-11.623,4.551-17.533,0c-0.27-0.207-0.632-0.123-0.813,0.186
	c-0.181,0.307-0.109,0.723,0.16,0.932c3.175,2.443,6.303,3.666,9.429,3.666c3.125,0,6.247-1.223,9.411-3.666
	c5.327-4.119,12.046-4.113,17.537,0.002c0.273,0.205,0.637,0.117,0.815-0.189C13.878,29.021,13.804,28.607,13.535,28.404
	L13.535,28.404z"/>
<path fill="#FFFFFF" stroke="#FFFFFF" stroke-width="0.5" stroke-miterlimit="10" d="M22.514,14.776
	c3.124,0,6.246-1.223,9.411-3.667c5.327-4.111,12.046-4.111,17.537,0.007c0.273,0.2,0.637,0.113,0.815-0.196
	c0.176-0.309,0.102-0.725-0.167-0.93c-5.898-4.418-13.117-4.415-18.84,0.005c-5.889,4.549-11.623,4.549-17.533,0
	c-0.27-0.208-0.631-0.125-0.813,0.183c-0.181,0.306-0.109,0.725,0.16,0.931C16.26,13.553,19.388,14.776,22.514,14.776L22.514,14.776
	z"/>
<path fill="#FFFFFF" stroke="#FFFFFF" stroke-width="0.5" stroke-miterlimit="10" d="M50.11,19.265
	c-5.898-4.417-13.117-4.416-18.84,0.006c-5.891,4.549-11.623,4.549-17.533,0c-0.27-0.208-0.631-0.125-0.813,0.184
	c-0.181,0.307-0.109,0.725,0.16,0.934c3.175,2.439,6.303,3.666,9.429,3.666c3.124-0.002,6.246-1.227,9.411-3.67
	c5.327-4.111,12.046-4.109,17.537,0.006c0.273,0.205,0.637,0.117,0.815-0.195C50.453,19.886,50.379,19.468,50.11,19.265
	L50.11,19.265z"/>
<path fill="#FFFFFF" stroke="#FFFFFF" stroke-width="0.5" stroke-miterlimit="10" d="M50.11,28.54
	c-5.898-4.416-13.117-4.416-18.84,0.004c-5.889,4.551-11.623,4.551-17.533,0c-0.27-0.207-0.631-0.123-0.813,0.186
	c-0.181,0.307-0.109,0.723,0.16,0.932c3.175,2.443,6.303,3.666,9.429,3.666c3.124,0,6.246-1.223,9.411-3.666
	c5.327-4.119,12.046-4.113,17.537,0.002c0.273,0.205,0.637,0.117,0.815-0.189C50.453,29.157,50.379,28.743,50.11,28.54L50.11,28.54z
	"/>
<path fill="#FFFFFF" stroke="#FFFFFF" stroke-width="0.5" stroke-miterlimit="10" d="M58.47,14.421c3.125,0,6.246-1.223,9.411-3.667
	c5.327-4.111,12.046-4.111,17.537,0.007c0.273,0.2,0.637,0.113,0.815-0.196c0.176-0.309,0.102-0.725-0.167-0.93
	c-5.898-4.418-13.117-4.415-18.84,0.005c-5.888,4.549-11.623,4.549-17.532,0c-0.27-0.208-0.633-0.125-0.813,0.183
	c-0.181,0.306-0.109,0.725,0.159,0.931C52.216,13.198,55.344,14.421,58.47,14.421L58.47,14.421z"/>
<path fill="#FFFFFF" stroke="#FFFFFF" stroke-width="0.5" stroke-miterlimit="10" d="M86.066,18.91
	c-5.898-4.417-13.117-4.416-18.84,0.006c-5.892,4.549-11.623,4.549-17.532,0c-0.27-0.208-0.633-0.125-0.813,0.184
	c-0.181,0.307-0.109,0.725,0.159,0.934c3.176,2.439,6.304,3.666,9.43,3.666c3.125-0.002,6.246-1.227,9.411-3.67
	c5.327-4.111,12.046-4.109,17.537,0.006c0.273,0.205,0.637,0.117,0.815-0.195C86.409,19.531,86.335,19.113,86.066,18.91
	L86.066,18.91z"/>
<path fill="#FFFFFF" stroke="#FFFFFF" stroke-width="0.5" stroke-miterlimit="10" d="M86.066,28.186
	c-5.898-4.416-13.117-4.416-18.84,0.004c-5.888,4.551-11.623,4.551-17.532,0c-0.27-0.207-0.633-0.123-0.813,0.186
	c-0.181,0.307-0.109,0.723,0.159,0.932c3.176,2.443,6.304,3.666,9.43,3.666c3.125,0,6.246-1.223,9.411-3.666
	c5.327-4.119,12.046-4.113,17.537,0.002c0.273,0.205,0.637,0.117,0.815-0.189C86.409,28.803,86.335,28.389,86.066,28.186
	L86.066,28.186z"/>
<path fill="#FFFFFF" stroke="#FFFFFF" stroke-width="0.5" stroke-miterlimit="10" d="M95.045,14.557
	c3.124,0,6.246-1.223,9.411-3.667c5.327-4.111,12.046-4.111,17.537,0.007c0.273,0.2,0.637,0.113,0.815-0.196
	c0.176-0.309,0.102-0.725-0.167-0.93c-5.898-4.418-13.117-4.415-18.84,0.005c-5.889,4.549-11.623,4.549-17.533,0
	c-0.27-0.208-0.631-0.125-0.813,0.183c-0.181,0.306-0.109,0.725,0.16,0.931C88.791,13.334,91.919,14.557,95.045,14.557
	L95.045,14.557z"/>
<path fill="#FFFFFF" stroke="#FFFFFF" stroke-width="0.5" stroke-miterlimit="10" d="M122.642,19.046
	c-5.898-4.417-13.117-4.416-18.84,0.006c-5.891,4.549-11.623,4.549-17.533,0c-0.27-0.208-0.631-0.125-0.813,0.184
	c-0.181,0.307-0.109,0.725,0.16,0.934c3.175,2.439,6.303,3.666,9.429,3.666c3.124-0.002,6.246-1.227,9.411-3.67
	c5.327-4.111,12.046-4.109,17.537,0.006c0.273,0.205,0.637,0.117,0.815-0.195C122.984,19.667,122.91,19.249,122.642,19.046
	L122.642,19.046z"/>
<path fill="#FFFFFF" stroke="#FFFFFF" stroke-width="0.5" stroke-miterlimit="10" d="M122.642,28.321
	c-5.898-4.416-13.117-4.416-18.84,0.004c-5.889,4.551-11.623,4.551-17.533,0c-0.27-0.207-0.631-0.123-0.813,0.186
	c-0.181,0.307-0.109,0.723,0.16,0.932c3.175,2.443,6.303,3.666,9.429,3.666c3.124,0,6.246-1.223,9.411-3.666
	c5.327-4.119,12.046-4.113,17.537,0.002c0.273,0.205,0.637,0.117,0.815-0.189C122.984,28.938,122.91,28.524,122.642,28.321
	L122.642,28.321z"/>
</svg>
