<?xml version="1.0" encoding="utf-8"?>
<!-- Generator: Adobe Illustrator 16.0.0, SVG Export Plug-In . SVG Version: 6.00 Build 0)  -->
<!DOCTYPE svg PUBLIC "-//W3C//DTD SVG 1.1//EN" "http://www.w3.org/Graphics/SVG/1.1/DTD/svg11.dtd">
<svg version="1.1" id="Calque_1" xmlns="http://www.w3.org/2000/svg" xmlns:xlink="http://www.w3.org/1999/xlink" x="0px" y="0px"
	width="35px" height="20px" viewBox="0 0 35 20" enable-background="new 0 0 35 20" xml:space="preserve">
	<rect x="2.541" y="-2.625" fill="none" width="29.993" height="27.458"/>
	<path fill="none" d="M25.663,8.603c-0.361,0-0.696,0.201-1.009,0.585V6.815h-0.985v7.276h0.985V13.57
	c0.32,0.398,0.658,0.602,1.009,0.602c0.395,0,0.658-0.212,0.785-0.619c0.064-0.224,0.098-0.583,0.098-1.089v-2.157
	c0-0.512-0.033-0.873-0.098-1.088C26.321,8.81,26.058,8.603,25.663,8.603z M25.567,12.545c0,0.485-0.145,0.728-0.425,0.728
	c-0.168,0-0.329-0.081-0.488-0.242V9.722c0.159-0.159,0.32-0.229,0.488-0.229c0.28,0,0.425,0.248,0.425,0.736V12.545z"/>
	<path fill="none" d="M21.835,12.818c-0.218,0.301-0.426,0.454-0.618,0.454c-0.137,0-0.208-0.081-0.231-0.232
	c-0.007-0.033-0.007-0.151-0.007-0.377v-3.99H19.99v4.288c0,0.376,0.033,0.639,0.088,0.801c0.098,0.271,0.314,0.4,0.635,0.4
	c0.359,0,0.737-0.218,1.122-0.664v0.593h0.984V8.673h-0.984V12.818z"/>
	<polygon fill="none" points="16.427,7.841 17.588,7.841 17.588,14.091 18.678,14.091 18.678,7.841 19.855,7.841 19.855,6.815 
	16.427,6.815 "/>
	<path fill="none" d="M28.797,8.603c-0.505,0-0.899,0.192-1.18,0.559c-0.208,0.272-0.304,0.696-0.304,1.275v1.897
	c0,0.576,0.105,1.003,0.314,1.273c0.288,0.368,0.672,0.555,1.192,0.555c0.513,0,0.914-0.193,1.186-0.583
	c0.121-0.176,0.192-0.372,0.223-0.586c0.019-0.097,0.026-0.322,0.026-0.635v-0.141h-1.003c0,0.389-0.006,0.608-0.022,0.663
	c-0.049,0.257-0.193,0.392-0.433,0.392c-0.338,0-0.505-0.25-0.505-0.755v-0.961h1.963v-1.12c0-0.579-0.097-1.003-0.305-1.275
	C29.678,8.795,29.285,8.603,28.797,8.603z M29.27,10.742h-0.978v-0.498c0-0.504,0.167-0.752,0.486-0.752
	c0.331,0,0.491,0.248,0.491,0.752V10.742z"/>
	<g>
	<g>
	<path fill="#FFFFFF" d="M31.603,8.291c-0.402,0-0.614,0.313-0.614,0.951v0.63h1.236v-0.63C32.225,8.604,32.022,8.291,31.603,8.291
			z"/>
	<g>
	<path fill="#FFFFFF" d="M34.646,4.805C34.392,3.711,33.5,2.91,32.429,2.78c-2.557-0.285-5.128-0.285-7.692-0.285
				c-2.57,0-5.145,0-7.697,0.285c-1.072,0.129-1.965,0.931-2.219,2.025c-0.352,1.559-0.362,3.252-0.362,4.85
				c0,1.602,0,3.304,0.362,4.866c0.254,1.094,1.147,1.891,2.21,2.013c2.553,0.286,5.136,0.294,7.698,0.286
				c2.573,0.008,5.145,0,7.701-0.286c1.071-0.122,1.963-0.919,2.217-2.013C35,12.959,35,11.257,35,9.655
				C35,8.057,35,6.364,34.646,4.805z M20.321,6.203h-1.489v7.901h-1.377V6.203h-1.468V4.906h4.334V6.203z M24.069,14.104h-1.245
				v-0.749c-0.486,0.564-0.965,0.839-1.418,0.839c-0.405,0-0.68-0.162-0.803-0.504c-0.069-0.207-0.111-0.537-0.111-1.014v-5.42
				h1.249V12.3c0,0.287,0,0.436,0.009,0.477c0.029,0.192,0.12,0.295,0.293,0.295c0.244,0,0.506-0.194,0.781-0.574V7.256h1.245
				V14.104z M28.781,12.048c0,0.641-0.043,1.096-0.124,1.377c-0.16,0.516-0.494,0.783-0.992,0.783c-0.444,0-0.872-0.258-1.275-0.761
				v0.657h-1.246V4.906h1.246v3c0.395-0.485,0.818-0.739,1.275-0.739c0.498,0,0.832,0.261,0.992,0.779
				c0.081,0.271,0.124,0.729,0.124,1.375V12.048z M33.471,10.902h-2.482v1.214c0,0.638,0.212,0.955,0.638,0.955
				c0.303,0,0.486-0.171,0.548-0.495c0.021-0.069,0.028-0.349,0.028-0.839h1.269v0.179c0,0.394-0.011,0.681-0.034,0.803
				c-0.038,0.271-0.128,0.517-0.281,0.739c-0.343,0.492-0.851,0.736-1.499,0.736c-0.657,0-1.144-0.233-1.508-0.7
				c-0.263-0.341-0.397-0.881-0.397-1.61V9.485c0-0.732,0.121-1.268,0.384-1.612c0.354-0.464,0.854-0.707,1.491-0.707
				c0.618,0,1.114,0.243,1.459,0.707c0.263,0.344,0.386,0.88,0.386,1.612V10.902z"/>
	<path fill="#FFFFFF" d="M27.006,8.291c-0.213,0-0.416,0.09-0.616,0.291v4.183c0.2,0.204,0.403,0.307,0.616,0.307
				c0.354,0,0.538-0.307,0.538-0.919v-2.93C27.544,8.604,27.36,8.291,27.006,8.291z"/>
	</g>
	</g>
	<g>
	<path fill="#FFFFFF" d="M3.326,10.346v3.759H1.937v-3.759C1.804,9.678,1.519,8.693,1.076,7.397
			c-0.294-0.86-0.599-1.722-0.893-2.58h1.469l0.983,3.642l0.952-3.642h1.408L3.326,10.346z"/>
	<path fill="#FFFFFF" d="M13.354,14.104h-1.257v-0.749c-0.496,0.564-0.974,0.853-1.426,0.853c-0.408,0-0.69-0.176-0.812-0.518
			c-0.071-0.213-0.115-0.547-0.115-1.036V7.186h1.258v5.098c0,0.292,0,0.443,0.012,0.48c0.027,0.194,0.119,0.297,0.292,0.297
			c0.252,0,0.518-0.195,0.791-0.585V7.186h1.257V14.104z"/>
	<path fill="#FFFFFF" d="M8.327,7.802C7.975,7.336,7.488,7.095,6.859,7.095c-0.628,0-1.117,0.241-1.46,0.707
			C5.137,8.158,5.006,8.707,5.006,9.434v2.43c0,0.733,0.131,1.28,0.393,1.62c0.344,0.478,0.833,0.725,1.46,0.725
			c0.628,0,1.116-0.247,1.467-0.725c0.265-0.34,0.386-0.887,0.386-1.62v-2.43C8.713,8.707,8.591,8.158,8.327,7.802z M7.456,12.096
			c0,0.64-0.191,0.966-0.596,0.966c-0.404,0-0.596-0.326-0.596-0.966V9.18c0-0.638,0.192-0.95,0.596-0.95
			c0.405,0,0.596,0.312,0.596,0.95V12.096z"/>
	</g>
	</g>
	</svg>